<svg width="28" height="28" viewBox="0 0 28 28" fill="none" xmlns="http://www.w3.org/2000/svg">
<g clip-path="url(#clip0_517_234)">
<path d="M14 28.0001C21.732 28.0001 28 21.7321 28 14.0001C28 6.26808 21.732 6.10352e-05 14 6.10352e-05C6.26801 6.10352e-05 0 6.26808 0 14.0001C0 21.7321 6.26801 28.0001 14 28.0001Z" fill="#3C5A9A"/>
<path d="M18.5521 4.2973H15.4508C13.6103 4.2973 11.5632 5.07137 11.5632 7.73916C11.5722 8.66872 11.5632 9.55897 11.5632 10.5609H9.43408V13.949H11.6291V23.7027H15.6626V13.8846H18.3248L18.5657 10.5514H15.5931C15.5931 10.5514 15.5997 9.06862 15.5931 8.63801C15.5931 7.58376 16.6901 7.64413 16.7561 7.64413C17.2781 7.64413 18.2931 7.64565 18.5536 7.64413V4.2973H18.5521Z" fill="white"/>
</g>
<defs>
<clipPath id="clip0_517_234">
<rect width="28" height="28" fill="white"/>
</clipPath>
</defs>
</svg>
